# xmcd CD database file
#
# Track frame offsets:
#	150
#	2812
#	28802
#	65285
#	98572
#	129607
#	167860
#	208015
#	254502
#	290202
#
# Disc length: 3967 seconds
#
# Revision: 0
# Processed by: cddbd v1.5.2PL0 Copyright (c) Steve Scherf et al.
# Submitted via: CDex 1.70beta2
#
DISCID=930f7d0a
DTITLE=Pema Chodron - The Places That Scare You (Disk 4)
DYEAR=2001
DGENRE=New Age
TTITLE0=Introduction
TTITLE1=Bodhisattva activity
TTITLE2=Paramita training
TTITLE3=Groundlessness
TTITLE4=Perceiving reality
TTITLE5=Heightened neurosis
TTITLE6=When the going gets tough
TTITLE7=The spiritual friend
TTITLE8=The in-between state
TTITLE9=Concluding aspiration
EXTD=YEAR: 2001
EXTT0=
EXTT1=
EXTT2=
EXTT3=
EXTT4=
EXTT5=
EXTT6=
EXTT7=
EXTT8=
EXTT9=
PLAYORDER=
